<?xml version="1.0" standalone="no"?>
<!DOCTYPE svg PUBLIC "-//W3C//DTD SVG 20010904//EN"
 "http://www.w3.org/TR/2001/REC-SVG-20010904/DTD/svg10.dtd">
<svg version="1.0" xmlns="http://www.w3.org/2000/svg"
 width="1000.000000pt" height="1000.000000pt" viewBox="0 0 1000.000000 1000.000000"
 preserveAspectRatio="xMidYMid meet">
<metadata>
Created by potrace 1.11, written by Peter Selinger 2001-2013
</metadata>
<g transform="translate(0.000000,1000.000000) scale(0.100000,-0.100000)"
fill="#000000" stroke="none">
<path d="M1550 9990 c-169 -24 -228 -37 -349 -77 -372 -123 -698 -371 -914
-697 -31 -47 -57 -88 -57 -92 0 -4 -6 -15 -13 -23 -37 -45 -126 -267 -163
-407 -56 -216 -53 29 -53 -3759 -1 -1920 3 -3484 8 -3477 5 8 14 -17 26 -70
16 -78 61 -226 88 -293 27 -68 126 -254 167 -315 172 -256 436 -486 696 -606
147 -68 414 -148 512 -153 7 -1 10 -6 7 -11 -7 -12 6904 -9 6941 2 12 3 44 9
72 13 29 3 65 10 82 15 16 5 30 7 30 5 0 -2 18 2 40 10 22 8 43 14 45 14 3 0
43 12 88 26 395 130 720 390 938 753 146 241 224 486 248 777 7 86 5 6737 -2
6795 -7 63 -19 145 -24 165 -2 11 -6 30 -8 41 -3 12 -17 62 -31 110 -84 292
-241 554 -452 758 -116 113 -138 131 -247 204 -205 139 -444 236 -685 279 -88
16 -342 18 -3515 19 -1881 1 -3445 -2 -3475 -6z m935 -777 c-47 -107 -139
-263 -216 -367 -271 -365 -673 -615 -1099 -682 -19 -3 -46 -7 -60 -10 -40 -8
-355 -15 -372 -9 -12 5 -14 25 -11 113 8 296 115 539 324 736 151 143 359 243
543 262 33 4 63 8 65 10 2 2 194 3 427 4 l424 0 -25 -57z m4369 -20 c-89 -197
-226 -395 -379 -548 -247 -247 -532 -401 -874 -472 -111 -23 -151 -26 -336
-27 -163 -1 -232 3 -310 17 -303 55 -559 173 -800 366 -211 169 -404 424 -519
684 l-26 57 1640 0 1639 0 -35 -77z m1536 66 c156 -26 266 -66 385 -137 76
-46 83 -52 178 -142 171 -162 280 -385 305 -620 8 -81 8 -6712 -1 -6745 -2
-11 -8 -39 -12 -63 -12 -72 -71 -228 -115 -306 -133 -233 -370 -413 -635 -483
-96 -25 -113 -26 -422 -31 l-323 -4 0 2484 c0 2744 5 2545 -64 2652 -140 219
-469 255 -648 71 -59 -60 -67 -77 -237 -480 -134 -318 -238 -563 -886 -2090
-164 -385 -322 -758 -352 -830 -30 -71 -62 -146 -70 -165 -26 -59 -40 -92 -68
-160 -15 -36 -33 -78 -40 -95 -8 -16 -116 -271 -240 -565 -125 -294 -235 -553
-244 -575 -10 -22 -37 -86 -61 -143 l-43 -102 -1048 0 -1049 0 9 22 c11 28
258 612 277 653 12 27 90 211 391 925 52 124 103 243 113 265 10 22 48 112 85
200 37 88 75 178 85 200 10 22 93 216 183 430 91 215 243 572 337 795 95 223
181 425 190 450 10 25 29 70 43 100 14 30 66 154 117 275 51 121 100 238 110
260 70 154 102 245 107 307 16 189 -98 357 -284 419 -150 50 -311 17 -416 -86
-66 -64 -53 -36 -372 -790 -23 -55 -93 -219 -155 -365 -62 -146 -144 -339
-182 -430 -39 -91 -76 -178 -83 -195 -8 -16 -45 -104 -83 -195 -135 -319 -383
-905 -397 -935 -7 -16 -70 -165 -140 -330 -69 -165 -132 -313 -140 -330 -7
-16 -88 -208 -180 -425 -92 -217 -187 -440 -210 -495 -24 -55 -94 -219 -155
-365 -62 -146 -122 -287 -134 -314 l-21 -49 -100 6 c-439 27 -808 320 -929
740 -14 48 -29 115 -33 150 -3 34 -6 393 -6 797 l0 735 157 370 c87 204 304
714 482 1135 178 421 330 779 338 795 31 69 38 93 43 156 17 203 -108 371
-322 432 -129 37 -289 -8 -386 -107 -57 -58 -66 -76 -219 -438 -46 -109 -87
-198 -90 -198 -3 0 -5 473 -5 1050 0 884 2 1050 14 1050 85 0 404 11 431 15
19 2 55 7 80 10 25 3 68 10 95 15 28 5 61 12 75 14 190 34 428 117 633 220
377 191 702 481 951 848 l59 87 59 -86 c141 -207 343 -428 518 -567 77 -61
254 -185 305 -212 200 -109 313 -160 475 -214 97 -32 262 -74 335 -86 22 -3
47 -8 55 -9 8 -2 40 -6 70 -10 30 -4 66 -9 80 -12 45 -9 463 -10 545 -2 153
16 256 32 353 55 37 9 74 17 82 19 34 8 162 49 251 81 210 76 484 234 679 391
187 150 431 423 545 610 6 9 25 41 43 70 81 132 192 379 242 538 12 39 23 76
26 83 3 10 66 13 307 11 166 0 327 -5 357 -10z m-1471 -7099 l0 -1430 -609 0
c-684 0 -616 -9 -580 75 10 22 61 144 115 270 53 127 108 254 121 283 13 29
24 55 24 57 0 2 13 33 28 67 16 35 34 79 42 98 7 19 23 58 35 85 12 28 46 106
74 175 29 69 59 139 66 155 18 41 14 32 283 665 132 311 248 586 259 610 11
25 46 107 78 183 31 75 59 137 61 137 2 0 3 -643 3 -1430z"/>
</g>
</svg>
